<svg xmlns="http://www.w3.org/2000/svg" width="103.119" height="70.016" viewBox="0 0 103.119 70.016">
  <g id="Grupo_9" data-name="Grupo 9" transform="translate(-340.839 -138.411)">
    <g id="Grupo_1" data-name="Grupo 1" transform="translate(340.839 193.037)">
      <path id="Trazado_1" data-name="Trazado 1" d="M343.067,245.619l3.539,9.086,3.7-9.746,3.54,9.746,3.759-9.086h2.228l-6.076,14.457-3.495-9.632-3.645,9.641-5.776-14.465Z" transform="translate(-340.839 -244.694)" fill="#161615"/>
      <path id="Trazado_2" data-name="Trazado 2" d="M390.163,255.729h-5.82l-1.515,3.3h-2.21l6.727-14.448,6.489,14.448h-2.245Zm-.837-1.928-2.016-4.622L385.2,253.8Z" transform="translate(-360.125 -244.511)" fill="#161615"/>
      <path id="Trazado_3" data-name="Trazado 3" d="M416.521,246.24v11.666h4v1.928H414.47V246.24Z" transform="translate(-376.537 -245.315)" fill="#161615"/>
      <path id="Trazado_4" data-name="Trazado 4" d="M434.888,258.964V244.445l9.913,10.372V245.37h2.051v14.421l-9.914-10.345v9.518Z" transform="translate(-386.436 -244.445)" fill="#161615"/>
      <path id="Trazado_5" data-name="Trazado 5" d="M471.387,246.24v8.188a4.505,4.505,0,0,0,.572,2.562,3.061,3.061,0,0,0,4.816,0,4.428,4.428,0,0,0,.572-2.562V246.24H479.4v8.752a4.9,4.9,0,0,1-1.338,3.539,5.177,5.177,0,0,1-7.386,0,4.894,4.894,0,0,1-1.338-3.539V246.24Z" transform="translate(-403.137 -245.315)" fill="#161615"/>
      <path id="Trazado_6" data-name="Trazado 6" d="M507.14,248.017l-1.664.986a2.866,2.866,0,0,0-.889-1.057,2.363,2.363,0,0,0-2.553.2,1.5,1.5,0,0,0-.564,1.2q0,.995,1.479,1.6l1.356.555a5.794,5.794,0,0,1,2.421,1.633,3.681,3.681,0,0,1,.766,2.364,4.154,4.154,0,0,1-1.25,3.1,4.29,4.29,0,0,1-3.126,1.232,4.18,4.18,0,0,1-2.923-1.047,4.825,4.825,0,0,1-1.418-2.949l2.078-.458a3.523,3.523,0,0,0,.493,1.655,2.343,2.343,0,0,0,3.442.238,2.223,2.223,0,0,0,.634-1.629,2.306,2.306,0,0,0-.11-.726,1.844,1.844,0,0,0-.344-.607,2.748,2.748,0,0,0-.6-.52,5.843,5.843,0,0,0-.88-.462l-1.312-.547q-2.791-1.179-2.791-3.451a3.273,3.273,0,0,1,1.171-2.562,4.23,4.23,0,0,1,2.914-1.039A4.069,4.069,0,0,1,507.14,248.017Z" transform="translate(-417.41 -245.067)" fill="#161615"/>
      <path id="Trazado_7" data-name="Trazado 7" d="M532.446,248.017l-1.664.986a2.87,2.87,0,0,0-.89-1.057,2.363,2.363,0,0,0-2.553.2,1.5,1.5,0,0,0-.563,1.2q0,.995,1.479,1.6l1.356.555a5.8,5.8,0,0,1,2.421,1.633,3.68,3.68,0,0,1,.766,2.364,4.155,4.155,0,0,1-1.25,3.1,4.289,4.289,0,0,1-3.125,1.232,4.179,4.179,0,0,1-2.923-1.047,4.819,4.819,0,0,1-1.418-2.949l2.078-.458a3.528,3.528,0,0,0,.493,1.655,2.343,2.343,0,0,0,3.442.238,2.224,2.224,0,0,0,.634-1.629,2.29,2.29,0,0,0-.11-.726,1.835,1.835,0,0,0-.344-.607,2.732,2.732,0,0,0-.6-.52,5.847,5.847,0,0,0-.88-.462l-1.312-.547q-2.792-1.179-2.791-3.451a3.274,3.274,0,0,1,1.17-2.562,4.232,4.232,0,0,1,2.914-1.039A4.069,4.069,0,0,1,532.446,248.017Z" transform="translate(-429.679 -245.067)" fill="#161615"/>
    </g>
    <g id="Grupo_6" data-name="Grupo 6" transform="translate(369.394 138.411)">
      <g id="Grupo_2" data-name="Grupo 2" transform="translate(6.24 6.24)">
        <circle id="Elipse_1" data-name="Elipse 1" cx="18.414" cy="18.414" r="18.414" fill="#161615"/>
      </g>
      <g id="Grupo_3" data-name="Grupo 3" transform="translate(11.752 14.371)">
        <path id="Trazado_8" data-name="Trazado 8" d="M440.293,182.273l4.564-8.749-4.624-.013-2.308,4.3-5.546-10.442-2.352,4.428h0l-3.195,6.015-2.309-4.3-4.624.013,4.564,8.75h0l.029.056,2.353,4.511h0l5.531-10.553,3.146,6h0l.009.018,2.376,4.533h0l2.376-4.555.006-.012Z" transform="translate(-419.476 -166.824)" fill="#f50000"/>
        <path id="Trazado_9" data-name="Trazado 9" d="M426.479,186.938l-.03-.059-.031.059-.2-.5-7.14-13.689,5.2-.015,2.153,4.015,5.547-10.444,5.547,10.444,2.153-4.015,5.2.015-7.37,14.129-5.533-10.554-5.3,10.114Zm5.5-11.722,5.53,10.552,2.149-4.119.234.108-.228-.12,4.368-8.373-4.046-.012-2.463,4.593-5.545-10.44-5.545,10.44-2.463-4.593-4.046.012,6.491,12.443.031-.077.032.08Z" transform="translate(-419.077 -166.307)" fill="#161615"/>
      </g>
      <g id="Grupo_4" data-name="Grupo 4" transform="translate(2.912 4.458)">
        <path id="Trazado_10" data-name="Trazado 10" d="M422.116,187.457a20.2,20.2,0,1,1,20.2-20.2A20.22,20.22,0,0,1,422.116,187.457Zm0-39.878A19.681,19.681,0,1,0,441.8,167.261,19.7,19.7,0,0,0,422.116,147.579Z" transform="translate(-401.919 -147.064)" fill="#161615"/>
      </g>
      <g id="Grupo_5" data-name="Grupo 5">
        <path id="Trazado_11" data-name="Trazado 11" d="M420.92,187.72a24.654,24.654,0,1,1,24.655-24.654A24.682,24.682,0,0,1,420.92,187.72Zm0-46.218a21.563,21.563,0,1,0,21.564,21.563A21.587,21.587,0,0,0,420.92,141.5Z" transform="translate(-396.266 -138.411)" fill="#161615"/>
      </g>
    </g>
  </g>
</svg>
